<?xml version="1.0" standalone="no"?>
<!DOCTYPE svg PUBLIC "-//W3C//DTD SVG 20010904//EN"
 "http://www.w3.org/TR/2001/REC-SVG-20010904/DTD/svg10.dtd">
<svg version="1.0" xmlns="http://www.w3.org/2000/svg"
 width="800.000000pt" height="798.000000pt" viewBox="0 0 800.000000 798.000000"
 preserveAspectRatio="xMidYMid meet">
<metadata>
Created by potrace 1.16, written by Peter Selinger 2001-2019
</metadata>
<g transform="translate(0.000000,798.000000) scale(0.100000,-0.100000)"
fill="#000000" stroke="none">
<path d="M3710 7973 c-212 -16 -497 -62 -696 -113 -960 -245 -1794 -838 -2351
-1670 -275 -411 -487 -921 -583 -1399 -66 -332 -85 -548 -77 -904 10 -453 71
-798 219 -1226 465 -1346 1648 -2358 3058 -2615 167 -30 260 -41 260 -30 0 14
140 1217 145 1249 4 26 15 36 72 64 174 85 365 246 489 410 78 104 165 275
198 392 76 266 56 562 -53 794 -35 75 -100 187 -101 174 0 -4 7 -26 16 -50 11
-28 18 -90 21 -174 12 -316 -66 -572 -265 -870 -227 -339 -601 -545 -1063
-585 -280 -25 -622 39 -883 164 -205 98 -411 263 -506 405 -48 71 -117 214
-125 258 -5 27 -1 31 257 175 l262 146 46 -81 c131 -234 282 -387 470 -476
143 -68 271 -84 432 -56 301 52 599 242 692 440 102 217 14 477 -222 656 -134
101 -322 181 -576 245 -245 61 -362 106 -489 191 -307 204 -461 534 -444 953
4 105 11 155 31 225 36 122 111 274 187 376 191 259 459 416 820 481 118 21
150 22 697 23 565 0 573 0 577 20 2 11 9 88 15 170 28 375 102 871 170 1141
41 160 95 311 138 379 98 157 362 409 551 526 28 18 50 34 48 35 -2 2 -74 21
-160 43 -335 85 -645 122 -1001 119 -127 -1 -251 -3 -276 -5z"/>
<path d="M5735 7280 c-322 -51 -533 -261 -599 -595 -12 -59 -126 -1083 -126
-1128 0 -4 225 -7 500 -7 l500 0 0 -295 0 -295 -539 0 c-342 0 -542 -4 -546
-10 -3 -5 -42 -317 -86 -692 -43 -376 -97 -836 -119 -1023 -22 -187 -110 -938
-195 -1670 -85 -731 -160 -1370 -165 -1420 -6 -50 -12 -102 -15 -117 -4 -27
-3 -28 38 -28 23 0 104 9 179 20 633 90 1225 325 1747 693 318 224 651 546
882 852 439 581 699 1232 791 1975 8 67 13 227 13 440 0 351 -6 427 -51 690
-164 960 -678 1821 -1456 2445 -117 93 -166 115 -352 150 -99 20 -319 27 -401
15z"/>
<path d="M2948 4944 c-239 -43 -398 -187 -444 -403 -37 -176 4 -302 141 -437
165 -162 468 -309 897 -434 166 -49 306 -106 370 -151 16 -12 31 -19 33 -17 2
2 40 314 85 693 44 380 83 707 86 728 l6 37 -549 -1 c-423 -1 -566 -4 -625
-15z"/>
</g>
</svg>
